<svg width="24" height="24" viewBox="0 0 24 24" fill="none" xmlns="http://www.w3.org/2000/svg">
<path d="M12 2.04004C17.4998 2.04004 21.9997 6.52979 22 12.0596C22.0054 14.4452 21.158 16.7549 19.6104 18.5703C18.0626 20.3858 15.916 21.5878 13.5596 21.96V14.96H15.8896L16.3398 12.0596H13.5596V10.1797C13.5597 9.38981 13.9506 8.62012 15.1904 8.62012H16.4502V6.15039C16.4502 6.15039 15.3097 5.95996 14.2197 5.95996C11.93 5.96007 10.4406 7.33998 10.4404 9.84961V12.0596H7.90039V14.96H10.4404V21.96C5.66043 21.21 2 17.0596 2 12.0596C2.00025 6.52979 6.50016 2.04004 12 2.04004Z" fill="#828282"/>
</svg>
