<svg width="24" height="24" viewBox="0 0 24 24" fill="none" xmlns="http://www.w3.org/2000/svg">
<path d="M16.2002 2C19.4 2.00011 21.9999 4.59996 22 7.7998V16.2002C21.9999 17.7384 21.3884 19.2131 20.3008 20.3008C19.2131 21.3884 17.7384 21.9999 16.2002 22H7.7998C4.59996 21.9999 2.00011 19.4 2 16.2002V7.7998C2.00005 6.26162 2.61155 4.78688 3.69922 3.69922C4.78688 2.61155 6.26162 2.00005 7.7998 2H16.2002ZM7.59961 4C6.64497 4.0001 5.72973 4.37965 5.05469 5.05469C4.37965 5.72973 4.0001 6.64497 4 7.59961V16.4004C4.00021 18.3901 5.60992 19.9998 7.59961 20H16.4004C17.355 19.9999 18.2703 19.6204 18.9453 18.9453C19.6204 18.2703 19.9999 17.355 20 16.4004V7.59961C19.9998 5.60992 18.3901 4.00021 16.4004 4H7.59961ZM12 7C13.3261 7 14.5975 7.52716 15.5352 8.46484C16.4728 9.40253 17 10.6739 17 12C17 13.3261 16.4728 14.5975 15.5352 15.5352C14.5975 16.4728 13.3261 17 12 17C10.6739 17 9.40253 16.4728 8.46484 15.5352C7.52716 14.5975 7 13.3261 7 12C7 10.6739 7.52716 9.40253 8.46484 8.46484C9.40253 7.52716 10.6739 7 12 7ZM12 9C11.2044 9 10.4415 9.3163 9.87891 9.87891C9.3163 10.4415 9 11.2044 9 12C9 12.7956 9.3163 13.5585 9.87891 14.1211C10.4415 14.6837 11.2044 15 12 15C12.7956 15 13.5585 14.6837 14.1211 14.1211C14.6837 13.5585 15 12.7956 15 12C15 11.2044 14.6837 10.4415 14.1211 9.87891C13.5585 9.3163 12.7956 9 12 9ZM17.25 5.5C17.5815 5.5 17.8994 5.63179 18.1338 5.86621C18.3682 6.10063 18.5 6.41848 18.5 6.75C18.5 7.08152 18.3682 7.39937 18.1338 7.63379C17.8994 7.86821 17.5815 8 17.25 8C16.9185 8 16.6006 7.86821 16.3662 7.63379C16.1318 7.39937 16 7.08152 16 6.75C16 6.41848 16.1318 6.10063 16.3662 5.86621C16.6006 5.63179 16.9185 5.5 17.25 5.5Z" fill="#828282"/>
</svg>
