<svg width="24" height="24" viewBox="0 0 24 24" fill="none" xmlns="http://www.w3.org/2000/svg">
<path d="M19 3C19.5304 3 20.039 3.21086 20.4141 3.58594C20.7891 3.96101 21 4.46957 21 5V19C21 19.5304 20.7891 20.039 20.4141 20.4141C20.039 20.7891 19.5304 21 19 21H5C4.46957 21 3.96101 20.7891 3.58594 20.4141C3.21086 20.039 3 19.5304 3 19V5C3 4.46957 3.21086 3.96101 3.58594 3.58594C3.96101 3.21086 4.46957 3 5 3H19ZM5.5 18.5H8.26953V10.1299H5.5V18.5ZM15.2402 9.94043C14.3902 9.94043 13.3999 10.4602 12.9199 11.2402V10.1299H10.1299V18.5H12.9199V13.5703C12.9199 12.8005 13.5398 12.1702 14.3096 12.1699C14.6808 12.1699 15.0373 12.3176 15.2998 12.5801C15.5624 12.8426 15.71 13.199 15.71 13.5703V18.5H18.5V13.2002C18.5 12.3356 18.1563 11.5059 17.5449 10.8945C16.9336 10.2834 16.1046 9.94049 15.2402 9.94043ZM6.87988 5.19043C6.43171 5.19046 6.00148 5.36766 5.68457 5.68457C5.36766 6.00148 5.19046 6.43171 5.19043 6.87988C5.19043 7.80984 5.94994 8.55951 6.87988 8.55957C7.32545 8.55957 7.7533 8.38342 8.06836 8.06836C8.38342 7.7533 8.55957 7.32545 8.55957 6.87988C8.55951 5.94994 7.80984 5.19043 6.87988 5.19043Z" fill="#828282"/>
</svg>
