<svg width="28" height="28" viewBox="0 0 28 28" fill="none" xmlns="http://www.w3.org/2000/svg">
<path d="M9.8266 5.2539C8.48535 5.30555 7.27283 5.78424 6.62456 6.43328C6.55294 6.50485 6.46793 6.56161 6.37438 6.60032C6.28082 6.63903 6.18056 6.65894 6.07931 6.6589C5.97806 6.65887 5.87781 6.63889 5.78429 6.60011C5.69076 6.56133 5.60579 6.50451 5.53422 6.43289C5.46265 6.36128 5.40589 6.27626 5.36718 6.18271C5.32846 6.08915 5.30856 5.98889 5.30859 5.88764C5.30863 5.78639 5.32861 5.68614 5.36739 5.59262C5.40616 5.49909 5.46299 5.41412 5.5346 5.34255C6.53437 4.34278 8.16237 3.77545 9.76648 3.71301C11.3814 3.65057 13.1443 4.09226 14.3791 5.32713C14.5237 5.47177 14.6048 5.66791 14.6048 5.87238C14.6047 6.07686 14.5234 6.27294 14.3788 6.41748C14.2341 6.56201 14.038 6.64317 13.8335 6.6431C13.629 6.64303 13.433 6.56173 13.2884 6.41709C12.4482 5.57611 11.1578 5.20149 9.8266 5.25313" fill="black" fill-opacity="0.5"/>
<path fill-rule="evenodd" clip-rule="evenodd" d="M16.4835 17.6798C14.6773 19.2081 12.3869 20.0452 10.0208 20.0417C4.48625 20.0417 0 15.5554 0 10.0208C0 4.48625 4.48625 0 10.0208 0C15.5554 0 20.0417 4.48625 20.0417 10.0208C20.0417 12.4836 19.1537 14.7383 17.6798 16.4835L19.3818 16.1875L27.3091 24.1148C27.8972 24.7029 27.8972 25.6564 27.3091 26.2438L26.2438 27.3091C25.6556 27.8972 24.7021 27.8972 24.1148 27.3091L16.1875 19.3818L16.4835 17.6798ZM18.5 10.0208C18.5 14.7036 14.7036 18.5 10.0208 18.5C5.33802 18.5 1.54167 14.7036 1.54167 10.0208C1.54167 5.33802 5.33802 1.54167 10.0208 1.54167C14.7036 1.54167 18.5 5.33802 18.5 10.0208ZM24.0878 23.0734L18.8577 17.8433L17.9943 17.9936L17.8433 18.8577L23.0888 24.1032L24.0878 23.0734ZM24.1787 25.1931L25.1793 26.1937L26.1937 25.1793L25.1777 24.1633L24.1787 25.1931Z" fill="black" fill-opacity="0.5"/>
</svg>
