<svg width="24" height="24" viewBox="0 0 24 24" fill="none" xmlns="http://www.w3.org/2000/svg">
<path d="M12 5C16.19 5 18.8001 5.16043 19.8301 5.44043C20.7299 5.69044 21.3096 6.27009 21.5596 7.16992C21.6896 7.63992 21.7798 8.27031 21.8398 9.07031C21.9098 9.87019 21.9404 10.5602 21.9404 11.1602L22 12C22 14.19 21.8396 15.8001 21.5596 16.8301C21.3096 17.7299 20.7299 18.3096 19.8301 18.5596C19.3601 18.6896 18.4997 18.7798 17.1797 18.8398C15.8798 18.9098 14.6898 18.9404 13.5898 18.9404L12 19C7.81 19 5.19992 18.8396 4.16992 18.5596C3.27009 18.3096 2.69044 17.7299 2.44043 16.8301C2.31043 16.3601 2.22016 15.7297 2.16016 14.9297C2.09017 14.1298 2.05957 13.4398 2.05957 12.8398L2 12C2 9.81 2.16043 8.19992 2.44043 7.16992C2.69044 6.27009 3.27009 5.69044 4.16992 5.44043C4.63992 5.31043 5.50031 5.22016 6.82031 5.16016C8.12019 5.09017 9.31024 5.05957 10.4102 5.05957L12 5ZM10 15L15.1904 12L10 9V15Z" fill="#828282"/>
</svg>
